<?xml version="1.0" encoding="UTF-8"?><svg id="Camada_1" xmlns="http://www.w3.org/2000/svg" xmlns:xlink="http://www.w3.org/1999/xlink" viewBox="0 0 900 450"><defs><style>.cls-1{stroke:url(#Gradiente_sem_nome_20);}.cls-1,.cls-2{fill:none;stroke-miterlimit:10;stroke-width:2px;}.cls-3{fill:url(#Gradiente_sem_nome_20-3);fill-rule:evenodd;}.cls-2{stroke:url(#Gradiente_sem_nome_20-2);}</style><linearGradient id="Gradiente_sem_nome_20" x1="748.82" y1="341.53" x2="748.82" y2="108.47" gradientUnits="userSpaceOnUse"><stop offset="0" stop-color="#3cd2cb"/><stop offset="1" stop-color="#6e51be"/></linearGradient><linearGradient id="Gradiente_sem_nome_20-2" x1="151.18" x2="151.18" xlink:href="#Gradiente_sem_nome_20"/><linearGradient id="Gradiente_sem_nome_20-3" x1="331.09" y1="218.82" x2="562.04" y2="218.82" xlink:href="#Gradiente_sem_nome_20"/></defs><path class="cls-1" d="m661.45,340.53c-15.56-.01-28.16-12.64-28.15-28.2,0-7.46,2.97-14.61,8.24-19.89l174.99-174.99c11.15-10.85,28.99-10.6,39.84.55,10.64,10.94,10.64,28.35,0,39.29l-174.99,174.99c-5.29,5.28-12.46,8.25-19.93,8.24Z"/><path class="cls-2" d="m63.8,340.53c-15.56-.01-28.16-12.64-28.15-28.2,0-7.46,2.97-14.61,8.24-19.89L218.88,117.45c11.15-10.85,28.99-10.6,39.84.55,10.64,10.94,10.64,28.35,0,39.29l-174.99,174.99c-5.29,5.28-12.46,8.25-19.93,8.24Z"/><path class="cls-3" d="m444.75,200.14c-5.24,1.01-9.87,4.06-12.86,8.48-2.99,4.42-4.11,9.85-3.1,15.1s4.06,9.87,8.49,12.86c4.42,2.99,9.85,4.11,15.1,3.09,5.24-1.01,9.87-4.06,12.86-8.49,2.99-4.42,4.1-9.85,3.09-15.1-1.02-5.24-4.07-9.86-8.49-12.85-4.42-2.99-9.84-4.11-15.08-3.1h0Zm5.08,26.36h0c-2.67.52-5.38-.62-6.88-2.89-1.5-2.26-1.48-5.21.04-7.46,1.52-2.25,4.24-3.36,6.91-2.82,2.66.54,4.73,2.63,5.25,5.3.7,3.64-1.68,7.16-5.32,7.87h0Zm111.63-28.37c-3.39-17.57-21.03-30.32-45.35-36.8-.68-6.1-1.93-12.12-3.75-17.98,5.38-4.63,7.92-11.76,6.68-18.75-1.24-6.99-6.07-12.81-12.71-15.32-6.64-2.51-14.12-1.32-19.66,3.11-.27-.1-.54-.2-.8-.3-16.93-5.86-36.49,2.2-54.26,20.02-.51-.22-1.02-.44-1.52-.65-23.42-9.71-43.38-8.92-56.24,2.22-13.53,11.72-16.35,32.68-9.8,56.99-1.22.92-2.42,1.84-3.58,2.78h0c-5.75-2.98-12.6-3.01-18.38-.08-5.78,2.94-9.79,8.48-10.77,14.89-.98,6.41,1.18,12.9,5.82,17.43-1.39,5.15-1.6,10.55-.61,15.79,3.39,17.58,20.14,30.49,44.44,36.98,2.96,24.98,13.36,43.39,30.28,49.24,6.1,2.07,12.64,2.48,18.95,1.18,11.07-2.13,22.72-8.92,34.09-20.02.39-.39.79-.79,1.18-1.18,2.48,1.08,4.95,2.04,7.41,2.89.01.1.03.21.05.31h0c1.15,5.96,4.93,11.09,10.3,13.95,5.36,2.86,11.73,3.14,17.32.77,5.59-2.37,9.82-7.14,11.49-12.98,4.11-1.45,7.92-3.66,11.23-6.51,13.52-11.72,16.32-32.67,9.79-56.97,20.15-15.06,31.79-33.44,28.4-51.02h0Zm-63.53-76.59c2.67-.52,5.38.63,6.88,2.89,1.5,2.27,1.48,5.21-.04,7.46-1.52,2.25-4.25,3.36-6.91,2.81-2.66-.55-4.73-2.64-5.24-5.31-.7-3.64,1.68-7.15,5.32-7.86h0Zm-63.13,26.99c5.49,2.95,10.79,6.25,15.87,9.88-4.46.59-8.98,1.31-13.54,2.19s-9,1.88-13.39,3.03h0c3.35-5.27,7.05-10.31,11.06-15.1h0Zm68.03,42.42c-2.72-3.55-5.6-7.09-8.64-10.6-3.02-3.49-6.12-6.85-9.29-10.08h0c6.23.27,12.44.95,18.59,2.03.18,6.22-.04,12.45-.66,18.65h0Zm14.41,52.72h0c-5.3,3.29-10.8,6.22-16.49,8.79,1.74-4.17,3.37-8.44,4.87-12.81,1.5-4.35,2.86-8.72,4.08-13.11h0c2.88,5.54,5.4,11.26,7.53,17.13h0Zm-17.31-33.7h0c-1.79,8.57-4.12,17.02-6.98,25.29-2.85,8.28-6.22,16.36-10.11,24.2-8.31,2.73-16.79,4.93-25.38,6.58-8.57,1.66-17.24,2.77-25.95,3.33-6.55-5.83-12.72-12.07-18.45-18.7-5.74-6.61-11.05-13.57-15.89-20.86,1.8-8.56,4.14-17,7-25.27,2.85-8.27,6.23-16.34,10.12-24.17,16.64-5.47,33.91-8.8,51.39-9.92,6.52,5.83,12.66,12.08,18.38,18.69,5.73,6.6,11.03,13.56,15.88,20.84h0Zm-105.68,38.86c2.73,3.56,5.62,7.11,8.67,10.63,3.03,3.49,6.13,6.85,9.3,10.09-6.23-.28-12.44-.97-18.58-2.05-.2-6.23.01-12.47.62-18.67h0Zm-14.38-52.7h0c5.3-3.28,10.81-6.21,16.49-8.77-1.72,4.14-3.35,8.41-4.88,12.8-1.52,4.4-2.88,8.76-4.09,13.09h0c-2.87-5.53-5.38-11.25-7.52-17.11h0Zm-29.92,8.62c2.67-.51,5.38.63,6.87,2.89,1.49,2.27,1.48,5.21-.04,7.46-1.52,2.25-4.25,3.36-6.91,2.81-2.66-.54-4.73-2.64-5.24-5.3-.34-1.75.03-3.56,1.03-5.03,1-1.47,2.54-2.49,4.29-2.83h0Zm30.16,59.48c-17.31-5.45-28.33-14.56-30.4-25.27h0c-.47-2.5-.49-5.05-.07-7.56,5.67.45,11.26-1.52,15.4-5.42,4.13-3.9,6.43-9.37,6.32-15.05,3.36,7.47,7.23,14.69,11.59,21.62-1.92,10.45-2.87,21.05-2.84,31.68h0Zm2.53-120.39c8.23-7.14,22.53-7.49,39.5-1.08-6.6,8.35-12.41,17.29-17.36,26.71-9.99,3.58-19.64,8.06-28.82,13.38-3.94-17.75-1.56-31.86,6.68-39.01h0Zm33,171.2c-10.31-3.56-17.75-15.77-20.69-33.67h0c10.52,1.54,21.16,2.11,31.79,1.68,8.09,6.88,16.79,13,26,18.28-13.38,12.29-26.79,17.27-37.1,13.71h0Zm46.7-23.78c-5.47-2.95-10.75-6.24-15.8-9.87,4.42-.58,8.91-1.3,13.45-2.17s9.03-1.89,13.38-3h0c-3.35,5.24-7.04,10.27-11.04,15.04h0Zm31.63,22.41c-2.66.51-5.38-.63-6.87-2.9s-1.48-5.21.05-7.45c1.52-2.25,4.25-3.36,6.9-2.81,2.66.55,4.72,2.64,5.24,5.3.69,3.64-1.69,7.15-5.32,7.86h0Zm20.51-17.69c-1.1.95-2.3,1.79-3.58,2.49-2.11-4.47-5.79-8-10.33-9.93s-9.64-2.12-14.32-.53c-4.68,1.59-8.61,4.84-11.04,9.13-.09-.03-.17-.05-.27-.1h0c6.59-8.33,12.39-17.24,17.34-26.63,10.02-3.55,19.69-8.03,28.89-13.38,3.94,17.71,1.55,31.82-6.69,38.95h0Zm-12.3-137.53c-10.53-1.54-21.17-2.11-31.8-1.68-8.09-6.88-16.79-13-26-18.28,12.54-11.5,25.08-16.61,35.09-14.29h0c-1.2,6.02.42,12.25,4.39,16.94,3.97,4.68,9.85,7.3,15.98,7.11,1,3.35,1.79,6.75,2.34,10.2h0Zm26.4,77.15c-3.92-9.89-8.76-19.39-14.44-28.39,1.4-7.76,2.29-15.6,2.68-23.48.12-2.76.17-5.48.14-8.16,17.34,5.45,29.25,14.39,31.32,25.1s-5.65,23.43-19.7,34.93h0Z"/></svg>